<svg xmlns="http://www.w3.org/2000/svg" xmlns:xlink="http://www.w3.org/1999/xlink" xmlns:inkscape="http://www.inkscape.org/namespaces/inkscape" version="1.1" width="612" height="792" viewBox="0 0 612 792">
<path d="M0 0H612V100H0Z" fill="#0a66c2"/>
<text fill="#ffffff" xml:space="preserve" transform="matrix(1 0 -0 1 0 792)" font-size="22" font-family="Helvetica" font-weight="bold"><tspan y="-746.204" x="50 65.884 78.116008 91.55801 105.00001 111.116008 115.472 129.04599 141.27799 149.83599 169.39398">Rahul Verma</tspan></text>
<text fill="#ffffff" xml:space="preserve" transform="matrix(1 0 -0 1 0 792)" font-size="9" font-family="Helvetica"><tspan y="-705.538" x="50 52.907 57.911005 62.915006 67.91901 69.91701 72.41901 76.69401 81.698009 84.920009 92.41701 97.421009 106.55601 111.29001 115.79001 120.79401 128.291 133.295 135.293 140.162 142.664 147.164 152.168 159.665 162.16699 164.50699 167.00899 172.01299 177.01699 182.02098 187.02498 192.02898 197.03298 202.03697 207.04097 212.04497 217.04897 219.55097 221.89096 224.39296 229.39696 231.89896 234.40096 239.40496 243.90496 246.40695 248.90895 251.41095 253.40895 255.40695 260.41096 264.73097 269.73497 274.73896 276.73695 281.74095 284.24296 288.74296 293.74696 301.24397 303.74598 305.74397 310.74797 313.24998 316.15699 321.16099 326.16499 331.16899 333.16697 336.16398 340.43898 345.44297 348.66499 356.162 361.166 363.668 366.008 368.51 373.514 376.01603 378.51805 383.52204 388.02204 390.52406 393.02607 395.52809 400.53208 402.53007 405.03208 410.03608 415.04008 419.68409 422.1861 426.6861 431.6901 439.1871 441.68913 444.59614 449.60014 454.60414 459.60813 461.6061 465.8811 470.8851 474.10713 481.60414 486.60813 489.60514 494.60914 499.34315">rahul.verma@example.com | 9876543210 | https://linkedin.com/in/rahul-verma | https://github.com/rahulverma-dev</tspan></text>
<text fill="#0a66c2" xml:space="preserve" transform="matrix(1 0 -0 1 0 792)" font-size="13" font-family="Helvetica" font-weight="bold"><tspan y="-663.1308" x="50 58.671 63.468004 71.411 75.61001 82.83801 90.06601 97.29401 100.908008 108.851009 116.79401 124.022 127.636 131.25 139.921 147.864 159.421 170.97801 178.20601 183.39302">Professional Summary</tspan></text>
<path stroke-width="1" stroke-linecap="butt" stroke-miterlimit="10" stroke-linejoin="miter" fill="none" stroke="#e0e0e0" d="M50 135.0052H562"/>
<text xml:space="preserve" transform="matrix(1 0 -0 1 0 792)" font-size="10" font-family="Helvetica"><tspan y="-642.0798" x="50 56.27 61.83 66.83 71.83 74.05 79.61 85.17 90.729999 93.509998 99.06999 101.84999 104.62999 110.18999 112.40999 114.62999 117.95999 122.95999 125.73999 131.29999 136.09999 141.09999 143.87999 149.43999 154.69998 159.44998 165.00998 167.22998 172.78998 178.34998 183.90998 187.23998 190.01998 197.23998 199.45998 202.23998 207.79998 210.57997 216.13997 221.69997 227.25997 232.81996 237.81996 241.14997 246.70996 252.26996 255.04996 260.30998 265.30998 270.86997 276.42997 279.90995 282.12995 287.68995 293.24995 298.24995 303.80995 306.58995 308.80995 314.36994 317.14994 322.50993 328.06993 330.28993 332.50993 338.06993 340.28993 345.8499 351.4099 354.1899 359.1899 364.1899 369.7499 371.9699 377.5299 382.8899 385.1099 390.6699 393.4499 400.5699 406.12989 411.68989 414.46989 420.02989 425.58988 431.14988 433.36988 435.58988 440.58988 446.14988 448.92988 451.14988 456.70988 462.26988 467.26988 470.04988 475.60987 480.60987 482.82987 488.38987 493.94987 496.72987 505.05986 511.72987 518.9498 526.1698 528.9498 533.9498 536.72988 542.28988 547.08987 552.08987 554.2699">Passionate full-stack developer with hands-on experience in building scalable web applications using MERN stack. </tspan></text>
<text xml:space="preserve" transform="matrix(1 0 -0 1 0 792)" font-size="10" font-family="Helvetica"><tspan y="-630.5198" x="50 56.670003 61.670003 63.890005 66.11 68.33 73.89 79.45 82.229999 84.45 90.009998 92.78999 99.45999 106.12999 108.90999 111.68999 117.249988 122.50998 127.25998 132.81998 135.03998 140.59998 146.15998 154.48998 160.04998 165.60997 168.38997 171.16997 173.94997 178.94997 181.16997 186.72997 192.28997 197.84996 200.62996 206.18996 211.74996 217.30995 219.52996 224.78995 229.78995 238.11995 243.67995 249.23995 252.01995 254.79994 257.57997 263.13996 268.69996 274.25996 277.03996 280.36994 285.92994 290.92994 296.48994 302.04994 307.60993 312.60993 314.82994 319.57994 325.13993 327.91993 335.13993 337.91993 340.69993 347.91993 354.58995 357.36994 362.92994 368.48994 373.48994 375.70994 381.26994 386.82994">Skilled in API development, cloud deployment, and responsive UI/UX design.</tspan></text>
<text fill="#0a66c2" xml:space="preserve" transform="matrix(1 0 -0 1 0 792)" font-size="13" font-family="Helvetica" font-weight="bold"><tspan y="-607.5578" x="50 57.163003 64.39101 71.489009 79.43201 87.37501 90.989009 98.21701 105.44501 109.059009 112.673007 121.344 128.572 132.186 135.8 139.414">Technical Skills</tspan></text>
<path stroke-width="1" stroke-linecap="butt" stroke-miterlimit="10" stroke-linejoin="miter" fill="none" stroke="#e0e0e0" d="M50 190.5782H562"/>
<text xml:space="preserve" transform="matrix(1 0 -0 1 0 792)" font-size="10" font-family="Helvetica" font-weight="bold"><tspan y="-586.5068" x="50 56.11 59.8 65.909999 72.02 75.35 80.909999 87.02 93.13 96.06">Frontend: </tspan></text>
<text xml:space="preserve" transform="matrix(1 0 -0 1 0 792)" font-size="10" font-family="Helvetica"><tspan y="-586.5068" x="98.84 106.06 112.17 120.5 126.06 128.84 131.62 138.84 145.51 151.98 154.76 157.54 162.34 167.7 172.45 178.01 184.68 189.68 193.15999 195.37999 200.93999 203.71999 206.49999 209.27999 216.49999 222.05998 227.61998 232.61998 235.39998 238.17998 240.39998 245.24999 248.02999 250.30998 255.21999 260.78 263 265.22 272.44 274.66 280.22 285.78 288.56 295.78 302.45 308.92 311.7 314.48 321.7 327.26 332.82 338.38 343.38 346.16 348.94 355.61003 361.17 366.73 369.51 374.51 377.29 380.52 386.08">HTML, CSS, JavaScript, React.js, Tailwind CSS, Redux, Bootstrap</tspan></text>
<text xml:space="preserve" transform="matrix(1 0 -0 1 0 792)" font-size="10" font-family="Helvetica" font-weight="bold"><tspan y="-574.9468" x="50 57.22 62.780004 68.14001 73.700008 79.26 85.37 91.48 94.41">Backend: </tspan></text>
<text xml:space="preserve" transform="matrix(1 0 -0 1 0 792)" font-size="10" font-family="Helvetica"><tspan y="-574.9468" x="97.19 104.41 109.97 115.53 120.939998 123.71999 125.939998 130.79001 133.57 136.35 143.02 148.02 153.58 156.91 162.47 167.47 172.32 175.1 177.32 182.17002 184.95001 187.73001 196.06002 201.62001 207.18001 212.74 218.3 225.52 231.99 234.77 237.55 245.88 250.88 257.55003 265.33003 270.89 273.67 276.45 283.67 290.34004 297.01005 303.12004 305.90003 312.57005 319.24006 322.02006 326.87007 329.65007 332.43006 337.43006 346.87007 352.98005 355.76005 362.13008 367.69007 370.47007 376.03007 381.59007 387.15007 389.93006 392.15007 397.15007 402.71006 405.49006 407.71006 413.27006">Node.js, Express.js, MongoDB, MySQL, REST APIs, JWT Authentication</tspan></text>
<text xml:space="preserve" transform="matrix(1 0 -0 1 0 792)" font-size="10" font-family="Helvetica" font-weight="bold"><tspan y="-563.3868" x="50 57.22 62.63 67.89 74 80.11 85.67 88.6">Devops: </tspan></text>
<text xml:space="preserve" transform="matrix(1 0 -0 1 0 792)" font-size="10" font-family="Helvetica"><tspan y="-563.3868" x="91.38 99.159999 101.38 104.159999 106.939998 109.71999 117.49999 119.71999 122.49999 129.71999 135.27999 140.83998 143.61998 150.28998 155.28998 158.06998 160.28998 165.84998 171.40998 176.25998 179.03998 181.81998 189.03998 194.59998 199.39998 204.19998 209.75998 212.58998 215.36998 218.14998 223.70998 225.92998 231.38997 236.94997 241.94997 244.72997 247.50997 254.72997 257.50999 260.28999 267.50999 274.02998 276.80998 279.58998 286.80998 292.36997 294.58998 300.14997">Git, GitHub Actions, Docker, Linux, CI/CD, Nginx</tspan></text>
<text xml:space="preserve" transform="matrix(1 0 -0 1 0 792)" font-size="10" font-family="Helvetica" font-weight="bold"><tspan y="-551.8268" x="50 57.78 61.11 67.22 72.78 76.52 82.079998 85.009998">Others: </tspan></text>
<text xml:space="preserve" transform="matrix(1 0 -0 1 0 792)" font-size="10" font-family="Helvetica"><tspan y="-551.8268" x="87.78999 93.95999 99.51999 104.51999 107.29999 115.62999 121.18999 126.749988 129.52999 132.30998 138.41999 140.63999 146.19998 154.52999 160.08998 162.86998 165.64998 170.64998 176.20998 181.20998">Postman, Figma, Jest</tspan></text>
<text fill="#0a66c2" xml:space="preserve" transform="matrix(1 0 -0 1 0 792)" font-size="13" font-family="Helvetica" font-weight="bold"><tspan y="-517.3048" x="50 58.671 66.614 74.557 81.785 89.013 93.342 96.956 104.899">Education</tspan></text>
<path stroke-width="1" stroke-linecap="butt" stroke-miterlimit="10" stroke-linejoin="miter" fill="none" stroke="#e0e0e0" d="M50 280.8312H562"/>
<text xml:space="preserve" transform="matrix(1 0 -0 1 0 792)" font-size="10" font-family="Helvetica" font-weight="bold"><tspan y="-496.2538" x="50 56.670003 59.45 65.56 68.34 75.56 81.67 84.45 90.009998 95.56999 99.30999 104.86999 107.64999 110.97999 115.73998 118.11998 120.099979 126.26997 131.82997 134.60997 137.38997 143.49997 147.38997 152.94997 155.72997 159.05997 164.61997 170.17996 175.73996 181.29996">VIT University, Vellore (2024)</tspan></text>
<text xml:space="preserve" transform="matrix(1 0 -0 1 0 792)" font-size="10" font-family="Helvetica"><tspan y="-484.3538" x="50 56.47 59.25 64.16 69.72 74.72 80.28 83.06 85.28 90.84 93.619998 100.84 106.399997 114.729999 120.28999 125.84999 128.62999 134.18999 137.51999 140.29999 146.96999 151.96999 154.18999 159.74999 165.30998 170.30998 175.86998 178.64998 185.31998 188.09998 194.76998 200.32997 205.88997 208.10997 213.66997 219.22997 224.78997 228.26996 230.48996 236.04996">B.Tech in Computer Science &#x0026; Engineering</tspan></text>
<text xml:space="preserve" transform="matrix(1 0 -0 1 0 792)" font-size="9" font-family="Helvetica"><tspan y="-473.5118" x="50 56.498 63.5 68.423 74.425998 76.478 78.979999 83.98399 86.48599 91.48999 93.99199 96.331989 98.833988 104.386989 109.39098 112.387989 116.887989 121.89198 126.89598 129.39798 134.40198 139.40598 144.40998 146.46198 148.96398 153.96797 158.97197 161.47397 166.47797">CGPA: 8.2 | Percentage: 78.5%</tspan></text>
<text fill="#0a66c2" xml:space="preserve" transform="matrix(1 0 -0 1 0 792)" font-size="13" font-family="Helvetica" font-weight="bold"><tspan y="-446.7106" x="50 58.671 63.468004 71.411 75.61001 82.83801 90.06601 97.29401 100.908008 108.851009 116.79401 124.022 127.636 131.25 139.921 147.149 155.092 162.31999 167.377 170.991 178.219 186.16199 193.38999">Professional Experience</tspan></text>
<path stroke-width="1" stroke-linecap="butt" stroke-miterlimit="10" stroke-linejoin="miter" fill="none" stroke="#e0e0e0" d="M50 351.4254H562"/>
<text xml:space="preserve" transform="matrix(1 0 -0 1 0 792)" font-size="10" font-family="Helvetica" font-weight="bold"><tspan y="-425.6596" x="50 56.670003 62.780004 66.11 69.44 77.22 82.78 86.67 92.229999 95.009998 102.229999 107.63999 113.19999 118.75999 121.539989 127.64999 133.75998 139.31998 143.20998 145.98998 148.76998 154.87998 158.20998 163.76998 167.65998 173.76998 176.54998 182.10997 185.43997 188.21997 195.43997 201.54998 207.65998 213.21997 220.43997 224.32997 229.88997 233.21997 236.54998 238.32997 243.83997 249.39997 254.85996 260.96995 267.07994 273.1899 275.9699 282.0799 288.18989 290.96989 296.52989">Software Developer Intern at CodeCraft Technologies</tspan></text>
<text xml:space="preserve" transform="matrix(1 0 -0 1 0 792)" font-size="10" font-family="Helvetica" font-style="italic"><tspan y="-413.7596" x="50 54.8 60.36 65.92 68.7 74.259998 79.81999 85.37999 90.93999 93.719989 97.04999 99.82999 104.62999 110.18999 115.749988 121.30998 124.08998 129.64998 135.20998 140.76998">Jan 2024 - June 2024</tspan></text>
<path d="M50 385.6204C50 384.51585 50.89543 383.6204 52 383.6204 53.10457 383.6204 54 384.51585 54 385.6204 54 386.72499 53.10457 387.6204 52 387.6204 50.89543 387.6204 50 386.72499 50 385.6204Z"/>
<text xml:space="preserve" transform="matrix(1 0 -0 1 0 792)" font-size="9" font-family="Helvetica"><tspan y="-402.9176" x="60 68.226009 73.23 76.36201 80.68201 85.686008 90.69 93.192 98.196 103.2 105.701999 110.52599 115.52999 117.52799 119.52599 124.52999 126.52799 131.532 136.536 139.038 141.54 144.53699 149.54099 154.54499 157.04698 162.05098 167.05498 172.05898 174.56098 182.05797 187.06197 192.06597 197.06996 199.06797 204.07196 208.57196 211.07396 216.07796 220.57796 222.57596 227.57996 232.58396 235.08596 241.58396 246.58795 251.59195 256.09196 258.59397 261.09599 266.09999 271.10398 276.10798 278.15998 282.57899 287.58299 289.58097 291.57896 298.07695 300.07493 305.07893 310.08293 312.04493 314.54695 317.04896 322.05296 324.55497 329.55897 334.47297 337.37998 342.38398 344.886 349.88999 354.89399 357.396 363.89399 369.89698 375.89997 381.39897 383.90098 389.90397 395.90696 398.40898 402.77397 405.27598 407.77799 415.275 420.279 425.283 430.287 435.291 440.29499 445.29899 447.801 452.805 457.809 462.813 464.81098 466.80897 471.30897 476.31297 478.81498 480.81297 485.81697 490.82096 493.32298 497.82298 500.32499 505.32899 507.831 512.835 515.33706 520.34109 524.84109 526.83908 531.8431 536.8471 539.3491 545.8471 550.85116 555.85519 560.8592 565.3592 567.8612">Worked on building frontend modules using React and Tailwind. Integrated REST APIs, managed application state using Redux, </tspan></text>
<text xml:space="preserve" transform="matrix(1 0 -0 1 0 792)" font-size="9" font-family="Helvetica"><tspan y="-392.5136" x="60 65.004 70.007999 75.01199 77.51399 82.51799 87.52199 90.51899 92.75099 97.75499 100.97699 108.47399 113.47799 118.48199 120.983989 125.98798 130.99199 132.98999 135.49199 137.99399 140.49599 145.49999 149.99999 152.50199 154.49999 159.50399 164.50798">and performed unit testing.</tspan></text>
<text xml:space="preserve" transform="matrix(1 0 -0 1 0 792)" font-size="10" font-family="Helvetica" font-weight="bold"><tspan y="-376.1896" x="50 57.22 62.780004 68.14001 73.700008 79.26 85.37 91.48 94.26 101.48 106.89 112.45 118.009998 120.78999 126.899997 133.01 138.56999 142.45999 145.23999 148.01999 154.12999 157.45999 163.01999 166.90999 173.01999 175.79999 181.35999 184.68999 186.46999 191.77999 197.33998 200.66999 206.22998 209.00998 216.22998 222.33998 228.44998 234.00998 240.11998 242.89998 246.22998 251.78998 257.89997 263.35997 268.91996 271.69996 278.36997 283.92997 287.91999 293.47999 296.25999 301.81999 307.37998">Backend Developer Intern at Tata Consultancy Services</tspan></text>
<text xml:space="preserve" transform="matrix(1 0 -0 1 0 792)" font-size="10" font-family="Helvetica" font-style="italic"><tspan y="-364.2896" x="50 54.8 60.36 62.58 67.58 70.36 75.92 81.479999 87.03999 92.59999 95.37999 98.70999 101.48999 108.70999 114.26999 119.26999 122.04999 127.609989 133.16999 138.72998">July 2024 - Dec 2024</tspan></text>
<path d="M50 435.0904C50 433.98585 50.89543 433.0904 52 433.0904 53.10457 433.0904 54 433.98585 54 435.0904 54 436.19499 53.10457 437.0904 52 437.0904 50.89543 437.0904 50 436.19499 50 435.0904Z"/>
<text xml:space="preserve" transform="matrix(1 0 -0 1 0 792)" font-size="9" font-family="Helvetica"><tspan y="-353.4476" x="60 66.498 71.232 75.507 80.511 82.509 87.513 92.517 97.520999 102.524997 105.02699 111.524997 117.52799 123.53099 129.02999 131.53199 136.53598 138.53398 141.03598 147.03899 153.04199 155.54399 160.04399 162.54599 167.54999 172.04999 174.04799 179.05199 184.05599 186.55799 192.56099 197.06099 202.06499 205.06198 210.06598 214.56598 218.93099 221.43299 223.43099 227.79599 230.29799 232.79999 237.80399 242.80799 247.81198 252.81598 254.81398 259.818 264.822 267.324 272.328 277.332 279.834 284.838 289.842 294.846 299.346 304.35 306.85203 311.85603 316.86003 321.36003 323.358 328.362 333.366 335.868 337.866 342.87 345.372 352.86903 357.36903 363.372 370.37403 375.37803 377.88005 380.38206 385.38606 390.39006 395.39405 397.89607 402.90007 407.90406 410.40608 412.40406 419.90107 421.89906 426.26405 431.26805 436.27204 438.77406 443.77806 448.78205 453.10206 457.42207 462.42607 467.43006 472.43406 474.93608 479.94007 484.94407 489.94807 493.08009 495.07807 500.08207 504.44706 506.40907 508.91108 514.64407 519.6481 522.1501 527.1541 534.6511 539.65518 542.15719 547.1612 552.1652">Developed RESTful APIs using Express.js, handled database design in MySQL, and optimized backend queries. Automated </tspan></text>
<text xml:space="preserve" transform="matrix(1 0 -0 1 0 792)" font-size="9" font-family="Helvetica"><tspan y="-343.0436" x="60 65.004 70.007999 75.01199 77.009998 81.743999 86.243999 93.741 98.744998 103.74899 106.25099 110.75099 113.25299 118.25699 122.75699 124.75499 129.75899 134.76299 137.26499 143.76299 148.76699 153.08699 157.407 162.411 165.40799 167.90999 172.91399 177.91799 182.92198 185.42398 192.42598 194.42398 196.92598 203.42398 208.42798 213.43198 215.93398 221.93698 226.43698 228.93898 230.93698 235.94098 240.94498 245.30998">deployments using Docker and GitHub Actions.</tspan></text>
<text fill="#0a66c2" xml:space="preserve" transform="matrix(1 0 -0 1 0 792)" font-size="13" font-family="Helvetica" font-weight="bold"><tspan y="-316.2424" x="50 59.386 66.614 71.931 76.26 79.874 84.203 87.817 95.045 102.272998 106.602 110.215999 118.159 126.102">Certifications</tspan></text>
<path stroke-width="1" stroke-linecap="butt" stroke-miterlimit="10" stroke-linejoin="miter" fill="none" stroke="#e0e0e0" d="M50 481.8936H562"/>
<text xml:space="preserve" transform="matrix(1 0 -0 1 0 792)" font-size="10" font-family="Helvetica"><tspan y="-295.1914" x="50 53.5 56.28 62.39 67.95 70.17 72.39 75.17 81.84 84.619998 90.17999 94.979999 99.979999 102.35999 111.49999 117.05999 122.61999 125.39999 132.61998 137.87998 142.62998 148.18997 150.40998 155.96997 161.52997 169.85997 175.41997 180.97997 183.75997 186.53997 189.86997 192.64997 199.86997 205.42996 210.98996 214.31996 219.31996 224.87996 228.10996 233.66996 236.44995 239.77996 248.10996 253.66996 256.44996 262.00996 265.33995 268.11994 271.44993 277.00993 282.56993 288.1299 293.6899">&#x2022; Full Stack Web Development - Coursera (Meta) (2024)</tspan></text>
<text xml:space="preserve" transform="matrix(1 0 -0 1 0 792)" font-size="10" font-family="Helvetica"><tspan y="-283.6314" x="50 53.5 56.28 63.5 65.72 71.28 76.84 82.399997 85.17999 91.28999 96.84999 102.40999 107.969989 113.52998 121.859989 127.41998 132.97998 135.75998 141.31998 143.53998 148.53998 151.31998 154.64998 157.42998 165.75998 167.97998 172.97998 176.30998 181.86998 186.86998 192.42998 195.20998 197.98998 200.76998 206.32997 211.88997 217.44997 221.02997 226.58997 229.36997 232.69997 238.25997 243.81996 249.37996 254.93996">&#x2022; Cloud Fundamentals - Microsoft Learn (2023)</tspan></text>
<text fill="#0a66c2" xml:space="preserve" transform="matrix(1 0 -0 1 0 792)" font-size="13" font-family="Helvetica" font-weight="bold"><tspan y="-260.6694" x="50 58.671 63.468004 71.411 75.025 82.253009 89.481 93.810009">Projects</tspan></text>
<path stroke-width="1" stroke-linecap="butt" stroke-miterlimit="10" stroke-linejoin="miter" fill="none" stroke="#e0e0e0" d="M50 537.4666H562"/>
<text xml:space="preserve" transform="matrix(1 0 -0 1 0 792)" font-size="10" font-family="Helvetica" font-weight="bold"><tspan y="-239.6184" x="50 57.22 62.780004 66.670009 72.23 77.79 81.68 88.35 91.13 96.689998 100.02 105.579998 108.35999 113.91999 116.69999 123.91999 129.48 135.04 141.15 150.04 155.59999 158.37999 165.59999 171.70999 174.48999 177.26999 183.37999 188.93999 192.82999 195.60999 202.82999 208.93999">CareerVista &#x2013; Resume Builder App</tspan></text>
<text xml:space="preserve" transform="matrix(1 0 -0 1 0 792)" font-size="9" font-family="Helvetica" font-style="italic"><tspan y="-228.4364" x="50 55.004 57.506 60.008 65.012 69.512 72.014 74.516 77.018 81.518 86.521999 89.519 94.522998 99.52699 102.79399 107.29399 109.29199 113.79199 116.29399 121.29799 123.79999 128.07498 133.07898 136.07598 140.57598 145.57997 147.57798 150.07997 155.08397 160.08797">https://careervista.vercel.app</tspan></text>
<text xml:space="preserve" transform="matrix(1 0 -0 1 0 792)" font-size="9" font-family="Helvetica"><tspan y="-218.0324" x="50 56.003 61.007 63.509 65.506999 70.510997 73.01299 78.01699 80.01499 82.51699 84.51499 88.78999 93.79399 96.29599 101.29999 103.29799 108.30199 110.803989 113.03599 118.039989 121.261989 128.75899 131.26099 133.76299 138.76699 143.77098 146.27298 148.77498 150.77298 155.77698 158.27898 162.77898 165.28098 170.28498 174.78498 179.78897 182.78597 187.28597 189.78797 194.28797 197.28496 202.28896 207.29296 209.79496 214.79895 217.30095 222.22396 227.72295 233.72595 236.72295 239.22495 242.35694 244.35494 249.35894 254.36293 259.36695 261.36494 265.86494 268.36695 271.36396 276.36796 280.86796 285.87196 293.36897 298.37297 302.87297 305.37498 307.37297 312.37696 314.87898 322.28599 327.28999 329.28797 331.78999 333.78797 338.79197 340.78996 345.79396 348.29597 350.79798 355.80198 363.29899 368.30299 370.30097 375.30497 377.80699 382.81098 387.31098 389.813 396.31098 398.30897 400.81098 405.81498 408.317 411.314 416.318 421.322 423.31999 426.317 428.819 430.817 438.314 443.318 445.82 450.824 453.821 458.55503 463.05503 465.053 469.877 475.835 478.337 480.83903 486.842 493.34 498.839 501.341 506.075 510.575 515.57907 520.58309 523.94009 526.4421 528.9441 531.4461 536.45016 541.45419 546.4582 548.9602 553.4602 557.9602 559.9582 561.9562 563.95419">An intuitive platform that lets users create ATS-friendly resumes in multiple templates with real-time preview, PDF export, and skill-</tspan></text>
<text xml:space="preserve" transform="matrix(1 0 -0 1 0 792)" font-size="9" font-family="Helvetica"><tspan y="-207.6284" x="50 55.004 60.008005 64.508 69.512 74.516 77.018 82.021999 87.02599 92.02999 97.03399 102.03799 106.53799 111.541988 119.03899 124.042987 129.04698 131.54898 134.05098 138.55098 143.55498 148.55898 153.56298 158.56697 163.06697 165.56897 167.56697 172.57097 177.57497 182.07497 184.57697 189.58097 194.08097 196.07897 201.08296 206.08696 208.58896 214.59197 217.09397">based enhancement suggestions using AI.</tspan></text>
<text xml:space="preserve" transform="matrix(1 0 -0 1 0 792)" font-size="10" font-family="Helvetica" font-weight="bold"><tspan y="-191.3044" x="50 56.670003 62.230005 67.79 76.68 83.35 89.46 95.02 101.13 103.909999 109.46999 112.24999 118.91999 127.80999 133.37 137.45999 140.79 143.56999 150.23999 155.79999 161.35999 170.24999 173.02999 180.24999 186.35999 195.24999 201.35999 206.91999 213.02999 215.80998 221.91999">ExamSnap &#x2013; Smart Exam Companion</tspan></text>
<text xml:space="preserve" transform="matrix(1 0 -0 1 0 792)" font-size="9" font-family="Helvetica" font-style="italic"><tspan y="-180.1224" x="50 55.004 57.506 60.008 65.012 69.512 72.014 74.516 77.018 81.752 86.252 91.256 98.753 103.253 108.256999 113.260997 117.94999 120.45199 124.72699 129.73099 132.72798 137.22798 142.23198 144.22998 146.73198 151.73598 156.73998">https://examsnap.vercel.app</tspan></text>
<text xml:space="preserve" transform="matrix(1 0 -0 1 0 792)" font-size="9" font-family="Helvetica"><tspan y="-169.7184" x="50 56.498 61.502004 63.500005 68.504009 73.004009 75.506008 80.006008 82.508 87.512 92.516 97.52 102.523998 105.02599 109.52599 112.02799 117.03199 120.02899 125.03299 130.03699 135.04099 138.03798 143.04198 145.54398 147.77597 152.77997 155.77696 158.27896 163.01296 167.51296 172.51696 180.01395 184.51395 187.01595 191.83995 196.33995 198.84195 203.34195 205.33995 210.34395 214.84395 219.34395 221.34195 223.84395 228.34395 230.34195 235.34595 240.34995 242.85195 247.85594 252.85994 257.35993 259.86195 262.36396 267.36796 272.37196 277.37596 281.87596 284.37797 286.37596 291.37995 296.38395 300.88395 303.38597 305.38395 310.38795 312.88996 317.89396 320.39598 325.39997 330.40397 332.40196 334.90397 339.40397 341.90599 346.90998 351.91398 356.91798 359.41999 364.42399 369.42799 374.43199 379.43598 382.343 387.347 389.849 391.847 396.85099 401.85499 404.357 409.361 414.365 418.595 425.003 430.007 433.004 437.504 440.006 444.506 446.504 451.508 454.01 459.014 464.018 471.515 475.88 477.842 480.34403 486.34703 491.351 496.355 501.359 506.363 509.72 512.222 516.722 519.224 525.227 531.725 537.224">Helps students prepare for exams by classifying past questions into units and generating answers via LLMs. Supports PDF </tspan></text>
<text xml:space="preserve" transform="matrix(1 0 -0 1 0 792)" font-size="9" font-family="Helvetica"><tspan y="-159.3144" x="50 55.004 59.873006 66.371 71.375 73.373 78.377 83.381 88.384998 92.884998 95.38699 100.39099 105.39499 110.39899 112.900989 117.90498 122.90898 125.90598 128.13799 133.14199 136.36399 143.86098 148.86498 153.86898 158.36898 163.37297 165.87497 170.87897 175.88297 180.88697 182.88497 187.38497 189.88697 191.88497 196.38497 200.74997">downloads and performance analytics.</tspan></text>
<text fill="#0a66c2" xml:space="preserve" transform="matrix(1 0 -0 1 0 792)" font-size="13" font-family="Helvetica" font-weight="bold"><tspan y="-132.5132" x="50 59.386 66.484 74.427 78.041 85.074 92.302 99.53 111.087 118.315 126.258 130.587">Achievements</tspan></text>
<path stroke-width="1" stroke-linecap="butt" stroke-miterlimit="10" stroke-linejoin="miter" fill="none" stroke="#e0e0e0" d="M50 665.6228H562"/>
<path d="M50 676.8578C50 675.56918 51.04467 674.5245 52.333333 674.5245 53.621999 674.5245 54.666669 675.56918 54.666669 676.8578 54.666669 678.1465 53.621999 679.19119 52.333333 679.19119 51.04467 679.19119 50 678.1465 50 676.8578Z"/>
<text xml:space="preserve" transform="matrix(1 0 -0 1 0 792)" font-size="10" font-family="Helvetica"><tspan y="-111.4622" x="61.666669 68.33667 73.89667 78.89667 84.456668 87.78667 93.346668 98.90666 101.68666 107.24666 112.806659 118.36665 121.14665 126.70665 128.92665 134.48665 139.48665 145.04665 147.82665 150.04665 155.60665 158.38665 165.60665 171.16664 175.96665 180.96665 187.63665 190.41664 196.52664 199.30664 204.86664 210.42664 215.98664 221.54663 224.32663 229.88663 232.66663 239.33663 242.11663 244.89662 253.22663 258.78663 261.06663 265.9766 269.20658 274.76658 279.56657">Secured 2nd place in HackVIT 2024 &#x2013; AI/ML Track</tspan></text>
<path d="M50 688.4178C50 687.12918 51.04467 686.0845 52.333333 686.0845 53.621999 686.0845 54.666669 687.12918 54.666669 688.4178 54.666669 689.7065 53.621999 690.75119 52.333333 690.75119 51.04467 690.75119 50 689.7065 50 688.4178Z"/>
<text xml:space="preserve" transform="matrix(1 0 -0 1 0 792)" font-size="10" font-family="Helvetica"><tspan y="-99.9022" x="61.666669 66.57667 72.136669 77.69666 80.47666 86.03666 94.92666 97.70666 102.70666 107.70666 113.266658 116.59666 122.156658 125.48666 128.26667 130.48667 136.04666 138.82666 147.15666 152.71666 155.49666 161.05666 163.83666 169.49666 172.82666 178.38666 183.94666 186.72666 192.28665 197.84665 203.40665 206.18665 213.40665 218.96665 222.69664 225.47664 227.69664 230.47664 232.69664 237.69664 243.25664 246.03664">Top 5% scorer in Meta Frontend Certificate</tspan></text>
<path d="M50 699.9778C50 698.68917 51.04467 697.6445 52.333333 697.6445 53.621999 697.6445 54.666669 698.68917 54.666669 699.9778 54.666669 701.2665 53.621999 702.31118 52.333333 702.31118 51.04467 702.31118 50 701.2665 50 699.9778Z"/>
<text xml:space="preserve" transform="matrix(1 0 -0 1 0 792)" font-size="10" font-family="Helvetica"><tspan y="-88.3422" x="61.666669 68.886669 74.44666 82.776668 88.33666 93.89666 98.89666 101.67666 108.34666 116.67666 122.23666 127.79665 132.79666 137.79666 143.35666 148.91666 154.47666 157.80666 160.58666 163.06665 168.62665 171.95665 174.73665 182.51665 184.73665 187.51665 194.73665 200.29665 205.85665 208.63665 215.30664 220.86664 226.42664 231.42664 236.98664 239.76663 241.98664 247.54663 253.10663 255.88663 262.55665 265.88664 271.44664 276.90663 280.1366 285.6966">Campus Ambassador for GitHub Education Program</tspan></text>
</svg>
