<svg xmlns="http://www.w3.org/2000/svg" xmlns:xlink="http://www.w3.org/1999/xlink" xmlns:inkscape="http://www.inkscape.org/namespaces/inkscape" version="1.1" width="612" height="792" viewBox="0 0 612 792">
<text fill="#1f4e79" xml:space="preserve" transform="matrix(1 0 -0 1 0 792)" font-size="20" font-family="Helvetica" font-weight="bold"><tspan y="-727.64" x="184.1 196.32 207.44 218.56 236.34 241.9 255.64 267.86 280.08 291.19999 303.41999 308.97999 320.09999 325.65998 340.09999 351.21998 363.43998 375.65998 381.21998 392.33998 403.45997 415.67997 422.33998">LaxmiKoushik Nandikanti</tspan></text>
<text xml:space="preserve" transform="matrix(1 0 -0 1 0 792)" font-size="10" font-family="Helvetica"><tspan y="-699.12" x="73.81501 79.37501 81.59501 87.15501 92.15501 100.48501 102.70501 107.50501 113.06501 118.62501 123.62501 129.18502 131.40502 136.40502 146.55503 152.11502 160.44503 166.00502 168.22502 170.44503 173.22502 178.22502 183.78502 192.11502 194.89502 197.49503 200.27503 205.83502 211.39502 216.95502 222.51502 228.07501 233.63501 239.195 244.755 250.315 255.875 258.655 261.255 264.035 269.595 272.375 275.155 280.715 285.715 288.495 291.275 294.055 301.275 308.495 315.115 317.895 320.115 322.335 327.895 332.69499 338.25498 343.81498 346.03498 351.59498 354.37498 359.37498 364.93498 373.26496 376.04496 378.52497 384.08497 389.64497 395.20497 397.98497 400.76496 403.36497 406.14497 411.70497 414.48497 417.26496 422.82496 427.82496 430.60496 433.38496 436.16496 441.72496 443.94496 446.72496 452.28495 457.84495 463.00495 465.78495 470.78495 476.34495 484.67494 487.45494 489.67494 492.45494 497.45494 503.72496 509.28495 514.845 519.845 525.40499 527.62496 532.62496">nlaxmikoushik@gmail.com | 7672020709 | https://www.linkedin.com/feed/ | https://github.com/itsKoushik7</tspan></text>
<path stroke-width="1" stroke-linecap="butt" stroke-miterlimit="10" stroke-linejoin="miter" fill="none" stroke="#1f4e79" d="M50 118.92H179.804"/>
<text fill="#1f4e79" xml:space="preserve" transform="matrix(1 0 -0 1 0 792)" font-size="12" font-family="Helvetica" font-weight="bold"><tspan y="-674.564" x="50 58.004 62.432 69.764 73.64 80.312 86.98399 93.65599 96.99199 104.32399 111.65599 118.32799 121.66399 124.999988 133.00399 140.33599 151.00399 161.67198 168.34398 173.13198">Professional Summary</tspan></text>
<text xml:space="preserve" transform="matrix(1 0 -0 1 0 792)" font-size="10" font-family="Helvetica"><tspan y="-657.436" x="50 56.670003 61.670003 64.450008 70.01 72.79 78.35 83.909999 86.689998 92.24999 94.46999 96.689998 100.02 105.579998 109.06 111.28 116.84 122.399997 125.17999 130.73999 136.29999 139.07999 144.63999 150.19998 155.75998 158.53998 161.86998 167.42998 172.42998 177.98998 180.20998 182.98998 187.98998 191.31998 196.87998 200.35997 202.57997 207.32997 212.88997 218.44997 221.22997 226.22997 231.78997 234.56996 237.34996 244.41997 249.97997 253.30997 258.86997 261.64997 267.20997 272.76997 278.32997 280.54997 286.10997 291.66996 297.22996 300.05995 302.83995 305.61994 308.39994 311.17994 313.39994 318.65995 323.40995 328.96995 332.19993 337.75993 343.31993 348.8799 351.6599 359.8399 364.8399 367.6199 372.8799 377.8799 383.4399 388.9999 392.7299 395.5099 397.7299 402.7299 408.2899 411.0699 413.2899 418.84989 421.62989 424.40989 427.73988 433.29988 438.85987 441.63987 447.19987 452.75987 458.31986 461.09986 466.65986 472.21986 477.77986 480.55986 486.11985 491.67985 496.47984 501.27983 506.8398 512.39987 517.95986">As a detail-oriented and results-driven software engineer, I leverage my expertise in frontend and backend </tspan></text>
<text xml:space="preserve" transform="matrix(1 0 -0 1 0 792)" font-size="10" font-family="Helvetica"><tspan y="-645.876" x="50 55.56 60.820005 65.57001 71.130008 73.350009 78.91 84.47 92.8 98.36 103.92 106.7 109.479999 112.259998 117.81999 120.59999 125.59999 128.82999 134.38999 137.16999 139.94998 142.72998 147.72998 152.72998 158.28998 160.50998 166.06998 171.42998 173.64998 179.20998 181.98998 187.54998 193.10997 198.66997 201.44997 207.00997 212.00997 217.56996 220.89997 224.22997 227.00997 230.48996 232.70996 238.26996 243.82996 249.38996 251.60996 256.60997 259.38996 264.94996 270.50996 276.06996 278.28996 280.50996 285.50996 291.06996 293.84996 296.06996 301.62995 307.18995 312.03996 314.21995 316.59996 326.03996 328.25996 331.03996 336.59996 339.37995 344.93995 347.71995 352.71995 355.49995 358.82994 364.38993 369.94993 375.50993 378.28993 380.76994 386.32994 391.88993 397.44993 403.00993 408.56993 411.3499 413.56993 419.1299 424.6899 427.4699 429.6899 435.2499 438.0299 446.3599 451.9199 457.4799 463.0399 466.61988 472.17988 474.95988 477.73988 483.29988 488.29988 493.85987 499.41987 504.97987 507.19987 512.7599 518.3199 520.53988 526.09988 530.9498 533.72988 536.5099 539.2899 541.1999 549.5299">development to craft scalable and user-friendly applications. With a strong foundation in modern technologies, I'm </tspan></text>
<text xml:space="preserve" transform="matrix(1 0 -0 1 0 792)" font-size="10" font-family="Helvetica"><tspan y="-634.316" x="50 57.120004 62.680006 64.9 67.12 70.450008 75.200008 80.76 84.090007 89.090007 94.65 100.21 102.99 105.21 110.77 113.549999 118.909999 124.46999 126.689998 128.90999 134.46999 136.68999 142.24999 147.80998 150.58998 153.91999 159.47998 164.83998 170.39998 175.39998 178.17998 180.95998 185.95998 191.51998 193.73998 199.29998 202.07997 204.29998 209.85997 215.41997 220.41997 223.19997 228.75997 233.75997 235.97997 241.53997 247.09996 249.87996 257.09996 262.65995 268.21995 273.21995 275.99995 278.77995 280.99995 285.84996 288.62995 291.40995 298.62995 304.18995 309.74995 315.15995 317.93995 320.15995 325.00996 327.78996 330.56996 336.12995 341.68995 347.24995 350.02995 356.69996 361.69996 367.25996 370.58995 376.14994 381.14994 385.99995 388.77995 390.99995 395.84996 398.02995 400.80995 408.02995 411.50993 413.72993 418.47993 424.03993 429.5999 432.3799 437.7399 442.7399 445.5199 451.0799 453.8599 459.4199 464.9799 469.9799 474.9799 477.1999 482.7599 488.3199 491.09989 493.5799 499.1399 502.46989 505.24989 510.24989 515.8099 521.3699 524.1499 526.3699 531.8299 537.3899 542.9499 548.5099 553.5099">well-versed in building robust solutions using React.js, Node.js, and Express.js. Driven by a passion for continuous </tspan></text>
<text xml:space="preserve" transform="matrix(1 0 -0 1 0 792)" font-size="10" font-family="Helvetica"><tspan y="-622.756" x="50 52.22 57.780004 63.340005 66.920009 72.48 74.700008 80.26 85.82 88.6 91.38 94.159999 96.939998 101.939998 104.71999 109.97999 114.97999 117.75999 123.319988 128.87999 132.20999 134.98999 140.54999 143.87999 149.43999 154.99999 157.77999 163.33998 166.11998 173.33998 175.55998 178.33998 183.89998 186.67998 189.45998 195.01998 200.57997 203.35997 205.57997 211.13997 213.91997 219.47997 224.47997 227.25997 230.03997 232.81996 236.14997 241.70996 247.26996 252.82996 257.82997 260.60997 266.16996 271.72996 277.28996 280.06996 282.84996 288.40995 293.96995 296.18995 301.03996 303.81996 306.59996 312.15995 317.71995 322.71995 328.27995 331.75993 333.97993 339.53993 345.0999 347.8799 352.8799 358.4399 363.9999 372.3299 374.5499 380.1099 385.1099 390.1099 392.8899 398.4499 404.0099 409.5699 411.7899 417.0499 422.0499 430.37989 435.93989 441.49989 444.27989 447.05989 452.61988 458.17988 463.73988 466.51988 472.07987 474.85987 477.63987 479.85987 484.85987 487.07987 492.63987 498.19987 500.97987">learning, I stay up-to-date with the latest trends and tools, ensuring seamless deployment and efficient </tspan></text>
<text xml:space="preserve" transform="matrix(1 0 -0 1 0 792)" font-size="10" font-family="Helvetica"><tspan y="-611.196" x="50 55 60.56 62.780004 65 70.56 76.119998 81.67999 84.909999 90.46999 93.24999 95.46999 101.02999 106.58999 109.36999 112.14999 117.709987 121.039989 126.59998 132.15999 137.71999 143.27999 146.05998 153.83998 156.05998 158.83998 161.61998 164.39998 171.61998 177.17998 181.97998 186.77999 192.33998 195.16999 197.94998 200.72998 206.28998 211.84998 217.40998 220.18997 225.74997 227.96997 233.42996 238.98996 243.98996">collaboration through Git, Docker, and Linux.</tspan></text>
<path stroke-width="1" stroke-linecap="butt" stroke-miterlimit="10" stroke-linejoin="miter" fill="none" stroke="#1f4e79" d="M50 206.844H139.208"/>
<text fill="#1f4e79" xml:space="preserve" transform="matrix(1 0 -0 1 0 792)" font-size="12" font-family="Helvetica" font-weight="bold"><tspan y="-586.64" x="50 56.612 63.284 69.836 77.168 84.5 87.836 94.507999 101.17999 104.51599 107.85199 115.85599 122.527988 125.86398 129.19998 132.53598">Technical Skills</tspan></text>
<text xml:space="preserve" transform="matrix(1 0 -0 1 0 792)" font-size="10" font-family="Helvetica"><tspan y="-569.512" x="50 53.5 56.28 61.94 65.27 70.829998 76.38999 79.16999 84.72999 90.289989 95.84998 98.12998 100.90998 108.12998 114.23998 122.569988 128.12999 130.90999 133.68999 140.90999 147.57999 154.04999 156.82999 159.60999 164.40999 169.76999 174.51999 180.07999 186.74999 191.74999 195.22998 197.44998 203.00998 205.78998 208.56998 211.34998 218.56998 224.12998 229.68997 234.68997 237.46997 240.24997 242.46997 247.31998 250.09998 252.37998 257.28996 262.84996 265.06996 267.28996 274.50996 276.72996 282.28996 287.84996 290.62995 293.40995 300.07997 305.63996 311.19996 313.97996 318.97996 321.75996 324.98994 330.54994 335.75993 338.53993 341.31993 349.6499 355.2099 357.9899 363.5499 367.02989 369.24989 374.80989 377.02989 379.80989 387.02989">&#x2022; Frontend: HTML, CSS, JavaScript, React.js, Tailwind, Bootstrap, Material Ui</tspan></text>
<text xml:space="preserve" transform="matrix(1 0 -0 1 0 792)" font-size="10" font-family="Helvetica"><tspan y="-554.484" x="50 53.5 56.28 62.95 68.51 73.310009 78.11001 83.670009 89.23 94.79 97.07 99.85 107.07 112.63 118.189998 123.59999 126.37999 128.59999 133.45 136.23 139.01 145.68 150.68 156.23999 159.56999 165.12999 170.12999 174.98 177.76 179.98 184.83 187.61 190.39 197.61 204.28 210.95 217.06 219.84 225.4 227.62 230.4 237.06999 243.73999 246.51999 251.37 254.15 256.93 261.93 271.37 277.47999 280.25999 286.63 292.19 294.97 300.53 306.09 311.65 314.43 316.65 321.65 327.21 329.99 332.21 337.77 343.33 346.11 348.88999 357.21998 362.21998 368.88999 376.66999 382.22999 385.00999 387.78999 394.46 401.68 407.78999 410.56999 418.34999 423.90998 429.46998 435.02998 438.25996 443.81996 446.59996 448.81996 454.37995 459.93995 462.71995 465.49995 472.71995 478.27995 480.49995 482.71995 489.78996 495.04997 500.04997 502.82997 510.04997 515.61 521.17 523.38998 528.64999 533.64999 541.98 547.54 553.1">&#x2022; Backend: Node.js, Express.js, RESTful APIs, JWT Authentication, MySQL, PDF Generation, Railway Deployment</tspan></text>
<text xml:space="preserve" transform="matrix(1 0 -0 1 0 792)" font-size="10" font-family="Helvetica"><tspan y="-539.456" x="50 53.5 56.28 63.5 68.759998 73.509998 79.06999 84.62999 89.62999 91.90999 94.68999 102.469989 104.68999 107.469989 110.249988 113.02998 118.58998 120.80998 126.26998 131.82999 136.82999 139.60999 142.38999 150.16999 152.38999 155.16999 162.38999 167.94998 173.10999 175.88999 178.66999 185.88999 191.44998 196.24999 201.04999 206.60999 209.43999 212.21999 214.99999 221.66999 227.22998 232.78998 235.00998 237.22998 240.00998 246.67998 251.67998 255.15998 257.37998 262.93998 265.71998 267.93998 273.49998">&#x2022; Devops: Git, Linux, GitHub, Docker, Shell Scripting</tspan></text>
<path stroke-width="1" stroke-linecap="butt" stroke-miterlimit="10" stroke-linejoin="miter" fill="none" stroke="#1f4e79" d="M50 278.584H108.007999"/>
<text fill="#1f4e79" xml:space="preserve" transform="matrix(1 0 -0 1 0 792)" font-size="12" font-family="Helvetica" font-weight="bold"><tspan y="-514.9" x="50 58.004 65.336 72.668 79.34 86.01199 90.007999 93.343997 100.675998">Education</tspan></text>
<text xml:space="preserve" transform="matrix(1 0 -0 1 0 792)" font-size="10" font-family="Helvetica" font-weight="bold"><tspan y="-497.772" x="50 52.78 58.89 65 71.11 75 77.78 80.56 86.67 92.229999 95.56 98.34 101.67 107.78 111.11 116.67 119.45 127.229999 130.56 133.34 140.01 146.12 152.23 155.01 161.12 166.68 172.23999 176.12999 178.90999 185.01999 191.12999 193.90999 201.12999 202.90999 208.41999 213.97998 219.43997 225.54998 231.65998 237.76998 240.54998 246.65998 252.76998">Indur Institute Of Engineering &#x0026; Technology</tspan></text>
<text xml:space="preserve" transform="matrix(1 0 -0 1 0 792)" font-size="10" font-family="Helvetica"><tspan y="-485.872" x="50 57.22 62.780004 71.11 76.67 82.229999 85.009998 90.56999 93.899997 96.67999 103.34999 108.34999 110.56999 116.12999 121.68999 126.68999 132.24999 135.02999 141.69998 144.47998 151.14998 156.70998 162.26998 164.48998 170.04998 175.60997 181.16997 184.64997 186.86997 192.42996">Computer Science &#x0026; Engineering</tspan></text>
<text xml:space="preserve" transform="matrix(1 0 -0 1 0 792)" font-size="10" font-family="Helvetica"><tspan y="-474.312" x="50 55.56 61.120004 66.68 72.24 75.02 77.619998 80.399997 87.619998 95.399997 100.869998 107.53999 109.81999 112.59999 118.15999 120.93999 126.499988 132.05998 134.83998 137.43999 140.21999 145.77999 151.33998 154.11998">2024 | CGPA: 7.54 | 71.5</tspan></text>
<path stroke-width="1" stroke-linecap="butt" stroke-miterlimit="10" stroke-linejoin="miter" fill="none" stroke="#1f4e79" d="M50 340.26H189.032"/>
<text fill="#1f4e79" xml:space="preserve" transform="matrix(1 0 -0 1 0 792)" font-size="12" font-family="Helvetica" font-weight="bold"><tspan y="-453.224" x="50 58.004 62.432 69.764 73.64 80.312 86.98399 93.65599 96.99199 104.32399 111.65599 118.32799 121.66399 124.999988 133.00399 139.67598 147.00798 153.67998 158.34798 161.68398 168.35597 175.68798 182.35997">Professional Experience</tspan></text>
<text xml:space="preserve" transform="matrix(1 0 -0 1 0 792)" font-size="10" font-family="Helvetica" font-weight="bold"><tspan y="-436.096" x="50 56.670003 62.780004 66.11 69.44 77.22 82.78 86.67 92.229999 95.009998 101.67999 107.78999 113.899997 116.67999 122.78999 128.34999 133.90999 137.79999 140.57999 146.13999 149.46999 152.24999 158.91999 161.69998 167.80998 173.36998 177.45998 180.78998 182.56998 188.07997 193.63997 199.09996 205.20996 211.31996 217.42996 220.20996 226.31996 232.42996 237.98996">Software Engineer at Elbert Technology </tspan></text>
<text xml:space="preserve" transform="matrix(1 0 -0 1 0 792)" font-size="10" font-family="Helvetica" font-style="italic"><tspan y="-436.096" x="241.76999 245.09999 252.31999 257.88 262.88 265.66 271.22 276.78 282.34 287.9 290.68 294.00999 296.78999 305.11997 310.37998 315.37998 318.15998 323.71998 329.27998 334.83998 340.39997">(Dec 2024 - May 2025)</tspan></text>
<path d="M50 365.596C50 364.49143 50.89543 363.596 52 363.596 53.10457 363.596 54 364.49143 54 365.596 54 366.70057 53.10457 367.596 52 367.596 50.89543 367.596 50 366.70057 50 365.596Z"/>
<text xml:space="preserve" transform="matrix(1 0 -0 1 0 792)" font-size="9" font-family="Helvetica"><tspan y="-422.942" x="60 67.002 72.006 74.004 79.007999 84.01199 89.01599 91.51799 96.52199 101.525989 106.52998 111.53398 116.03398 119.03098 124.03498 129.03899 131.54099 136.27498 140.77498 145.77898 150.78298 153.91497 155.91297 160.91696 165.92096 170.42096 175.42496 177.92696 179.92496 184.92896 187.43096 192.43495 197.16895 201.44394 206.44794 208.44594 213.44994 218.45394 220.45194 225.45594 230.45993 232.96193 237.46193 241.96193 246.96593 248.96393 253.96793 258.79194 260.78993 265.6589 268.16093 270.66294 273.65995 278.66395 283.16395 288.16795 293.17195 298.17594 302.67594 304.67393 308.9489 313.9529 316.45494 322.9529 325.45494 329.95494 332.45695 338.95494 340.9529 343.45494 348.45893 350.96095 357.45893 362.46293 367.46693 371.96693 374.46894 376.97096 378.96894 383.33393 385.83595 388.33796 393.34196 398.34596 402.84596 407.84996 410.98197 412.97996 417.98396 422.98796 425.48997 429.98997 431.98796 436.99195 441.99595 446.99995 449.50196 454.00196 459.00596 464.00996 468.87895 471.38096 473.88298 479.88597 485.88896 488.39097 490.89299 492.89097 497.89497 500.39698 505.40098 510.31498 513.2219 518.22598 520.72799 522.72598 527.73 532.734 535.236 537.73806 540.24008 545.2441 550.2481 555.25216">Gained hands-on experience in developing scalable, responsive UIs with React.js, ensuring clean code, API integration,  and </tspan></text>
<text xml:space="preserve" transform="matrix(1 0 -0 1 0 792)" font-size="9" font-family="Helvetica"><tspan y="-412.538" x="60 65.004 70.007999 73.005 75.237 80.241 83.463 90.96 95.964 100.967998 105.467998 110.47199 112.97399 117.97799 122.98199 125.483989 127.48199 134.97899 136.97699 141.47699 146.48099 148.98299 150.98099 155.98499 160.98899">performance optimization.</tspan></text>
<text xml:space="preserve" transform="matrix(1 0 -0 1 0 792)" font-size="10" font-family="Helvetica" font-weight="bold"><tspan y="-396.214" x="50 56.670003 60.36 66.47 72.58 76.47 82.03 90.92 99.81 105.369998 109.259998 112.03999 119.259998 125.369998 130.93 133.56 139.12 144.68 148.01 150.79 156.34999 159.68 162.45999 169.68 175.79 181.9 188.01 190.79 195.79 201.34999 207.45999 210.79 212.56999 218.07999 223.63999 229.09998 235.20998 241.31998 247.42998 250.20998 256.31999 262.42997 267.98997">Programmer Analyst at Cognizant Technology </tspan></text>
<text xml:space="preserve" transform="matrix(1 0 -0 1 0 792)" font-size="10" font-family="Helvetica" font-style="italic"><tspan y="-396.214" x="271.77 275.09999 283.42997 288.68998 293.68998 296.46998 302.02998 307.58998 313.14997 318.70997 321.48997 324.81996 327.59996 332.39994 337.95994 343.51994 349.07994 351.85993 357.41993 362.97993 368.53993 374.0999">(May 2025 - June 2025)</tspan></text>
<path d="M50 405.478C50 404.37345 50.89543 403.478 52 403.478 53.10457 403.478 54 404.37345 54 405.478 54 406.58259 53.10457 407.478 52 407.478 50.89543 407.478 50 406.58259 50 405.478Z"/>
<text xml:space="preserve" transform="matrix(1 0 -0 1 0 792)" font-size="9" font-family="Helvetica"><tspan y="-383.06" x="60 67.002 72.006 74.004 79.007999 84.01199 89.01599 91.51799 96.52199 101.525989 106.52998 111.53398 116.03398 119.03098 124.03498 129.03899 131.54099 136.27498 140.77498 145.77898 150.78298 153.91497 155.91297 160.91696 165.92096 170.42096 175.42496 177.92696 179.92496 184.92896 187.43096 189.42896 194.25296 198.52796 203.53195 206.03395 211.03795 216.04195 221.04595 223.54795 231.04494 236.04894 240.96294 245.96694 250.97093 252.96894 255.47093 257.97294 262.97694 267.47694 269.97895 271.97694 276.98094">Gained hands-on experience in java and manual testing</tspan></text>
<path stroke-width="1" stroke-linecap="butt" stroke-miterlimit="10" stroke-linejoin="miter" fill="none" stroke="#1f4e79" d="M50 433.386H126.92"/>
<text fill="#1f4e79" xml:space="preserve" transform="matrix(1 0 -0 1 0 792)" font-size="12" font-family="Helvetica" font-weight="bold"><tspan y="-360.098" x="50 58.664 65.336 70.243999 74.24 77.576 81.572 84.908 91.58 98.252 102.248 105.584 112.916 120.248">Certifications</tspan></text>
<text xml:space="preserve" transform="matrix(1 0 -0 1 0 792)" font-size="10" font-family="Helvetica"><tspan y="-342.97" x="50 53.5 56.28 61.84 64.06 69.52 75.079998 80.079998 82.85999 88.96999 94.52999 100.08999 105.64999 111.209987 119.539989 125.09998 130.65999 133.43999 138.99999 141.21999 146.21999 148.99999 152.32999 155.10999 161.37999 166.93999 172.49999 178.05998 184.72998 186.94998 192.50998 198.06998 203.62998 206.40998 209.73998 215.29998 220.85997 226.41997 231.97997">&#x2022; Linux Fundamentals - KodeKloud (2025)</tspan></text>
<text xml:space="preserve" transform="matrix(1 0 -0 1 0 792)" font-size="10" font-family="Helvetica"><tspan y="-331.41" x="50 53.5 56.28 63.5 70.17 76.28 82.95 88.509998 91.28999 96.09 101.45 106.2 111.759998 114.53999 121.20999 124.53999 130.09999 135.55998 138.78998 144.34998 152.67998 161.00998 163.22998 168.78998 174.34998 177.12998 180.45998 183.23998 190.45998 197.12998 203.23998 209.90998 215.46997 218.24997 221.57997 227.13997 232.69997 238.25997 243.81996">&#x2022; NPTEL Java Programming - NPTEL (2024)</tspan></text>
<path stroke-width="1" stroke-linecap="butt" stroke-miterlimit="10" stroke-linejoin="miter" fill="none" stroke="#1f4e79" d="M50 486.63H97.112"/>
<text fill="#1f4e79" xml:space="preserve" transform="matrix(1 0 -0 1 0 792)" font-size="12" font-family="Helvetica" font-weight="bold"><tspan y="-306.854" x="50 58.004 62.432 69.764 73.1 79.772 86.444 90.44">Projects</tspan></text>
<text xml:space="preserve" transform="matrix(1 0 -0 1 0 792)" font-size="10" font-family="Helvetica" font-weight="bold"><tspan y="-289.726" x="50 56.670003 60 66.11 72.07 77.63 80.409999 87.63 91.32 97.43 103.54 106.32 109.1 112.43 115.21 121.32 124.65 127.98 134.09 139.65 142.98 145.76 148.54 154.09999 157.43 163.54 169.5 175.06 178.39 184.5 188.19 194.3 200.41 203.19 208.75 214.31 218 223.56 229.12 231.9 234.68 240.23999 246.34999 252.45999">Study Broo  - https://study-broo.vercel.app/</tspan></text>
<text xml:space="preserve" transform="matrix(1 0 -0 1 0 792)" font-size="9" font-family="Helvetica"><tspan y="-276.164" x="70 76.003 78.505 83.508998 88.51299 93.01299 99.01599 102.01299 107.01699 112.02099 114.52299 116.52099 121.02099 123.52299 128.527 131.02899 135.52899 138.03099 143.03499 148.03899 153.04299 158.04698 160.54898 163.54598 168.54998 173.04998 177.54998 179.54798 184.04798 186.54998 189.05197 194.05597 196.05397 201.05797 203.55997 205.79196 210.79596 214.01796 221.51496 224.01696 226.51895 231.52295 236.52695 239.02895 241.53095 246.53495 251.53894 253.53694 258.54096 263.04096 265.54298 270.04298 275.04698 277.04496 279.04295 284.04695 289.05094 294.05494 296.55696 301.05696 303.55897 308.56297 313.56697 318.57096 323.57496 326.07698 330.57698 333.07899 339.57698 341.57496 344.07698 349.08097 351.58299 354.58 359.58399 364.08399 369.08799 376.585 381.589 384.091 388.915 393.919 395.917 397.91499 402.91899 404.91697 409.92097 414.92497 417.42698 419.929 421.92698 426.93098 431.43098 433.93299 436.93 444.427 446.425 451.339 456.343 458.845 463.849 466.351 471.08503 475.58503 480.58903 488.08604 490.58805 495.59205 498.58906 503.59306 508.28205 510.78407 513.2861 518.2901 523.2941 528.29818 530.8002 533.3022 535.3002 540.3042 545.3082 547.3062">StudyBroo is a student-assist platform that helps college students with resume building, last-minute exam prep, and final-</tspan></text>
<text xml:space="preserve" transform="matrix(1 0 -0 1 0 792)" font-size="9" font-family="Helvetica"><tspan y="-265.76" x="50 54.32 59.324 64.328 67.325008 69.827 74.831 77.828 82.832 84.83 89.834 94.334 96.836 99.338 103.838 108.841999 110.84 112.838 117.841999 122.84599 127.84999 130.75699 135.76099 138.26299 140.26099 145.26499 150.26898 152.23099 154.73299 157.23499 159.73699 162.23899 164.47098 169.47498 174.47898 176.98097 181.98497 184.98197 189.98596 194.48596 196.98796 198.98596 203.98996 206.49196 211.49596 213.49396 215.49196 217.48996 222.49396 227.49796 232.50196 235.00395 237.50595 242.50995 247.51395 252.51795 257.01795 259.51997 261.51795 266.52195 271.52595 274.02796 278.52796 280.52595 285.52995 290.02995 294.52995 296.52793 299.02995 301.02793 305.52793 310.53193 313.03395 315.03193 320.03593 325.03993 327.54194 330.04396 336.04695 338.54896 341.54597 346.54997 351.55397 356.55796 361.56196 364.46897 369.47297 371.97499 376.97898 381.98298 384.485 389.48899 394.49299 398.723 405.13099 410.13499 413.132 417.49699 419.999 422.501 427.505 432.509 437.513 440.015 445.019 449.888 456.386 461.38999 463.38798 468.39198 473.39598 478.39997 483.40397 488.22798 490.22596 495.22996 497.73197 503.73497 510.23295 515.73196 520.23196 522.73397 525.23599 530.24">year project collaboration. It features intelligent question classification, AI-generated answers, and downloadable PDFs to </tspan></text>
<text xml:space="preserve" transform="matrix(1 0 -0 1 0 792)" font-size="9" font-family="Helvetica"><tspan y="-255.356" x="50 54.5 56.498 63.995004 68.999 70.997 72.995 75.497 79.997 82.499 87.503 92.003 97.006999 102.010997 107.01499 114.51199 116.509998 121.009998 123.51199 126.01399 131.01799 135.51799 140.01799 144.383">simplify academic tasks.</tspan></text>
<path stroke-width="1" stroke-linecap="butt" stroke-miterlimit="10" stroke-linejoin="miter" fill="none" stroke="#1f4e79" d="M50 555.888H156.5"/>
<text fill="#1f4e79" xml:space="preserve" transform="matrix(1 0 -0 1 0 792)" font-size="12" font-family="Helvetica" font-weight="bold"><tspan y="-237.596" x="50 57.332 64.004 71.336 78.668 86 92.551998 100.004 106.675998 113.34799 116.68399 125.34799 132.68 139.832 149.168">Languages Known</tspan></text>
<text xml:space="preserve" transform="matrix(1 0 -0 1 0 792)" font-size="10" font-family="Helvetica"><tspan y="-220.468" x="50 54.91 60.47 62.690004 68.25 73.81 79.369998 82.149997 84.92999 92.149997 94.369998 99.92999 105.48999 107.70999 110.48999 113.26999 119.93999 125.499988 131.05998 133.27999 135.49999 140.49999">Telugu, Hindi, English</tspan></text>
<path stroke-width="1" stroke-linecap="butt" stroke-miterlimit="10" stroke-linejoin="miter" fill="none" stroke="#1f4e79" d="M50 597.572H162.692"/>
<text fill="#1f4e79" xml:space="preserve" transform="matrix(1 0 -0 1 0 792)" font-size="12" font-family="Helvetica" font-weight="bold"><tspan y="-195.912" x="50 58.664 65.996 73.328 80.66 83.996 90.668 97.34 100.675998 109.34 112.675998 116.01199 123.343997 127.34 134.012 138.68 145.35199 152.02399 156.01999">Hobbies &#x0026; Interests</tspan></text>
<text xml:space="preserve" transform="matrix(1 0 -0 1 0 792)" font-size="10" font-family="Helvetica"><tspan y="-178.784" x="50 56.670003 62.230005 67.79 70.57 76.13 81.59 84.82 90.38 95.939998 101.19999 105.19999 107.97999 110.75999 116.319988 118.539989 123.539989 126.319988 131.87999 137.43999 139.65999 145.21999 150.77999 153.55998 161.88999 167.44998 172.44998 174.66999">Photography, Listening Music</tspan></text>
<path stroke-width="1" stroke-linecap="butt" stroke-miterlimit="10" stroke-linejoin="miter" fill="none" stroke="#1f4e79" d="M50 639.256H100.004"/>
<text fill="#1f4e79" xml:space="preserve" transform="matrix(1 0 -0 1 0 792)" font-size="12" font-family="Helvetica" font-weight="bold"><tspan y="-154.228" x="50 57.332 64.664 71.336 78.007999 82.004 85.34 92.672">Location</tspan></text>
<text xml:space="preserve" transform="matrix(1 0 -0 1 0 792)" font-size="10" font-family="Helvetica"><tspan y="-137.1" x="50 57.22 62.22 67.78 73.34 76.57 82.13 87.689998 93.24999 98.80999 101.58999 103.86999 108.77999 114.33999 116.55999 122.11999 127.679988 133.23999 138.79999 144.35999">Hyderabad, Telangana</tspan></text>
</svg>
